<!--?xml version="1.0" encoding="utf-8"?-->
<!-- Svg Vector Icons : http://www.onlinewebfonts.com/icon -->

<svg version="1.1" xmlns="http://www.w3.org/2000/svg" xmlns:xlink="http://www.w3.org/1999/xlink" x="0px" y="0px" viewBox="0 0 256 256" enable-background="new 0 0 256 256" xml:space="preserve">
<g><g><path fill="#00ff00" data-title="Layer 0" xs="0" d="M244.6,228.8l-75.3-75.3c10.7-14.6,17-32.6,17-52.1c0-48.7-39.5-88.2-88.2-88.2C49.5,13.3,10,52.8,10,101.4c0,48.7,39.5,88.2,88.2,88.2c22.9,0,43.7-8.7,59.3-22.9l74.7,74.7c1.9,1.9,5,1.9,6.9,0l5.6-5.6C246.5,233.8,246.5,230.8,244.6,228.8z M98.2,171.2c-38.5,0-69.7-31.2-69.7-69.7c0-38.5,31.2-69.7,69.7-69.7c38.5,0,69.7,31.2,69.7,69.7C167.9,139.9,136.7,171.2,98.2,171.2z"/><path fill="#00ff00" data-title="Layer 1" xs="1" d="M155.3,102.1L155.3,102.1C155.4,68.4,128,41,94.3,41l0,0l0,0c-4.7,0-8.5,3.8-8.5,8.5s3.8,8.5,8.5,8.5l0,0v0.1c24.2,0,43.9,19.7,43.9,43.9l0,0c0,4.7,3.9,8.5,8.5,8.5C151.5,110.5,155.3,106.8,155.3,102.1L155.3,102.1z"/></g></g>
</svg>